# xmcd
#
# Track frame offsets:
#	150
#	15856
#	33404
#	51262
#	67433
#	89532
#	107331
#	134625
#	153953
#	173880
#	194953
#	215656
#	236940
#	254460
#	271569
#	289439
#
# Disc length: 4177 seconds
# Revision: 0
# Processed by: cddbd v1.5.2PL0 Copyright (c) Steve Scherf et al.
# Submitted via: dBpowerAMP V12.0
#
DISCID=f8104f10
DTITLE=Various Artist - Circlin' Back: Celebrating 50 Years
DYEAR=2016
DGENRE=Country
TTITLE0=The Nitty Gritty Dirt Band - You Ain't Going Nowhere
TTITLE1=The Nitty Gritty Dirt Band and John Prine - Grandpa Was A Carpenter
TTITLE2=The Nitty Gritty Dirt Band and John Prine - Paradise
TTITLE3=The Nitty Gritty Dirt Band - My Walkin' Shoes
TTITLE4=The Nitty Gritty Dirt Band and Vince Gill - Tennessee Stud
TTITLE5=The Nitty Gritty Dirt Band, Sam Bush and Vince Gill - Nine Pound Hammer
TTITLE6=The Nitty Gritty Dirt Band and Jackson Browne - These Days
TTITLE7=The Nitty Gritty Dirt Band and Alison Krauss - Keep On The Sunny Side
TTITLE8=The Nitty Gritty Dirt Band and Alison Krauss - Catfish John
TTITLE9=The Nitty Gritty Dirt Band, Rodney Crowell and Alison Krauss - An American Dream
TTITLE10=The Nitty Gritty Dirt Band and Rodney Crowell - Long Hard Road (The Sharecropper's Dream)
TTITLE11=The Nitty Gritty Dirt Band and Jerry Jeff Walker - Mr. Bojangles
TTITLE12=The Nitty Gritty Dirt Band and Jimmy Ibbotson - Fishin' In The Dark
TTITLE13=The Nitty Gritty Dirt Band - Bayou Jubilee/Sally Was A Goodun
TTITLE14=The Nitty Gritty Dirt Band - Jambalaya
TTITLE15=The Nitty Gritty Dirt Band - Will The Circle Be Unbroken
EXTD=
EXTT0=
EXTT1=
EXTT2=
EXTT3=
EXTT4=
EXTT5=
EXTT6=
EXTT7=
EXTT8=
EXTT9=
EXTT10=
EXTT11=
EXTT12=
EXTT13=
EXTT14=
EXTT15=
PLAYORDER=
